<?xml version="1.0" encoding="UTF-8" standalone="no"?><!-- Generator: Gravit.io --><svg xmlns="http://www.w3.org/2000/svg" xmlns:xlink="http://www.w3.org/1999/xlink" style="isolation:isolate" viewBox="0 0 64 64" width="64pt" height="64pt"><path d=" M 63.913 34.379 C 63.971 33.593 64 32.8 64 32 C 64 14.339 49.661 0 32 0 C 14.339 0 0 14.339 0 32 C 0 32.814 0.03 33.621 0.09 34.419 L 18.683 34.419 L 22.695 26.233 C 22.957 25.669 23.562 25.286 24.187 25.286 L 24.369 25.286 C 25.034 25.366 25.639 25.85 25.8 26.516 L 29.288 40.73 L 34.43 15.366 C 34.571 14.62 35.216 14.055 36.002 14.055 L 36.083 14.055 C 36.789 14.055 37.474 14.58 37.655 15.285 L 42.716 34.379 L 63.913 34.379 Z  M 63.496 37.685 C 60.81 52.638 47.721 64 32 64 C 16.293 64 3.214 52.659 0.512 37.726 L 19.731 37.726 C 20.356 37.726 20.921 37.343 21.223 36.778 L 23.703 31.758 L 27.877 48.674 C 28.058 49.42 28.744 49.944 29.49 49.944 C 30.278 49.966 30.963 49.409 31.103 48.633 L 36.224 22.947 L 39.833 36.456 C 40.014 37.161 40.7 37.685 41.446 37.685 L 63.496 37.685 Z " fill-rule="evenodd" fill="rgb(255,255,255)"/></svg>